<svg id="Layer_1" data-name="Layer 1" xmlns="http://www.w3.org/2000/svg" viewBox="0 0 59.99 64"><defs><style>.cls-1{fill:none;stroke:#0076ce;stroke-miterlimit:10;stroke-width:2px;}</style></defs><title>intelligent-data-mobility</title><path class="cls-1" d="M29.66,54.45c0,2.84-.25,8.55,7.13,8.55,5.88,0,11.23-6.28,11.4-10a9.59,9.59,0,0,0,8.06-10.45C60.47,40.5,63.52,29.48,58,24.25c1-4.5-2.07-14.8-11.25-14-2.24-12-17.11-11.65-17.11-2.85v7.13" transform="translate(-2.01)"/><path class="cls-1" d="M38.22,44.47c5.18,0,10,.81,10,8.55" transform="translate(-2.01)"/><path class="cls-1" d="M44.69,18.32c2.39.38,4.5,2.63,4.5,4.5" transform="translate(-2.01)"/><path class="cls-1" d="M46.77,10.26c0,5.48-3.11,12.56-11.07,12.56" transform="translate(-2.01)"/><path class="cls-1" d="M52.18,37.73a4.28,4.28,0,0,1-4.49-4.24,4.85,4.85,0,0,1,3-4.5" transform="translate(-2.01)"/><line class="cls-1" x1="27.66" y1="48.75" x2="27.66" y2="40.19"/><line class="cls-1" x1="27.66" y1="35.92" x2="27.66" y2="20.24"/><line class="cls-1" x1="24.8" y1="5.98" x2="19.1" y2="5.98"/><path class="cls-1" d="M47.69,34.67c-2.4-1.57-6.47-1-8.65,1.34-1.61,1.69-3.33,4.38-5.1,4.18H11.13" transform="translate(-2.01)"/><circle class="cls-1" cx="4.85" cy="40.19" r="3.85"/><path class="cls-1" d="M21.11,51.6h8.55c3.88,0,7.69.59,9,3.91" transform="translate(-2.01)"/><circle class="cls-1" cx="14.83" cy="51.6" r="4.28"/><line class="cls-1" x1="27.66" y1="28.79" x2="19.1" y2="28.79"/><circle class="cls-1" cx="14.83" cy="28.79" r="4.28"/><circle class="cls-1" cx="14.83" cy="5.98" r="4.28"/><path class="cls-1" d="M36.79,14.3c-1,2.45-3.56,3.09-7.13,3.09H11.13" transform="translate(-2.01)"/><circle class="cls-1" cx="4.85" cy="17.39" r="3.85"/></svg>